<mxfile host="app.diagrams.net" agent="Mozilla/5.0 (X11; Ubuntu; Linux x86_64; rv:130.0) Gecko/20100101 Firefox/130.0" version="24.7.17">
  <diagram name="Page-1" id="uGdV3QrJ44gtEsTstzMS">
    <mxGraphModel dx="1687" dy="924" grid="1" gridSize="10" guides="1" tooltips="1" connect="1" arrows="1" fold="1" page="1" pageScale="1" pageWidth="827" pageHeight="1169" math="0" shadow="0">
      <root>
        <mxCell id="0" />
        <mxCell id="1" parent="0" />
        <mxCell id="ghEgp-OwD1J704yQH-gl-66" value="" style="group" vertex="1" connectable="0" parent="1">
          <mxGeometry y="20" width="820" height="590" as="geometry" />
        </mxCell>
        <mxCell id="ghEgp-OwD1J704yQH-gl-20" style="edgeStyle=orthogonalEdgeStyle;rounded=0;orthogonalLoop=1;jettySize=auto;html=1;entryX=0.5;entryY=0;entryDx=0;entryDy=0;dashed=1;" edge="1" parent="ghEgp-OwD1J704yQH-gl-66">
          <mxGeometry relative="1" as="geometry">
            <mxPoint x="79.03614457831326" y="100" as="sourcePoint" />
            <mxPoint x="88.9156626506024" y="260" as="targetPoint" />
            <Array as="points">
              <mxPoint x="79.03614457831326" y="100" />
              <mxPoint x="79.03614457831326" y="180" />
              <mxPoint x="88.9156626506024" y="180" />
            </Array>
          </mxGeometry>
        </mxCell>
        <mxCell id="ghEgp-OwD1J704yQH-gl-1" value="" style="swimlane;startSize=20;horizontal=0;html=1;whiteSpace=wrap;" vertex="1" parent="ghEgp-OwD1J704yQH-gl-66">
          <mxGeometry width="820" height="100" as="geometry">
            <mxRectangle y="20" width="50" height="40" as="alternateBounds" />
          </mxGeometry>
        </mxCell>
        <mxCell id="ghEgp-OwD1J704yQH-gl-10" value="&lt;font style=&quot;font-size: 40px;&quot;&gt;Client&lt;/font&gt;" style="text;html=1;align=center;verticalAlign=middle;resizable=0;points=[];autosize=1;strokeColor=none;fillColor=none;" vertex="1" parent="ghEgp-OwD1J704yQH-gl-1">
          <mxGeometry x="345.78313253012044" y="20" width="130" height="60" as="geometry" />
        </mxCell>
        <mxCell id="ghEgp-OwD1J704yQH-gl-2" value="Pizza" style="swimlane;html=1;childLayout=stackLayout;resizeParent=1;resizeParentMax=0;horizontal=0;startSize=20;horizontalStack=0;whiteSpace=wrap;" vertex="1" parent="ghEgp-OwD1J704yQH-gl-66">
          <mxGeometry y="230" width="820" height="360" as="geometry" />
        </mxCell>
        <mxCell id="ghEgp-OwD1J704yQH-gl-3" value="&lt;div&gt;Employés&lt;/div&gt;" style="swimlane;html=1;startSize=20;horizontal=0;" vertex="1" parent="ghEgp-OwD1J704yQH-gl-2">
          <mxGeometry x="20" width="800" height="120" as="geometry" />
        </mxCell>
        <mxCell id="ghEgp-OwD1J704yQH-gl-19" style="edgeStyle=orthogonalEdgeStyle;rounded=0;orthogonalLoop=1;jettySize=auto;html=1;entryX=0.005;entryY=0.415;entryDx=0;entryDy=0;entryPerimeter=0;" edge="1" parent="ghEgp-OwD1J704yQH-gl-3" source="ghEgp-OwD1J704yQH-gl-22" target="ghEgp-OwD1J704yQH-gl-18">
          <mxGeometry relative="1" as="geometry">
            <mxPoint x="98.79518072289156" y="60" as="sourcePoint" />
          </mxGeometry>
        </mxCell>
        <mxCell id="ghEgp-OwD1J704yQH-gl-18" value="Enregistrer commande" style="rounded=1;whiteSpace=wrap;html=1;" vertex="1" parent="ghEgp-OwD1J704yQH-gl-3">
          <mxGeometry x="128.43373493975903" y="30" width="98.79518072289156" height="60" as="geometry" />
        </mxCell>
        <mxCell id="ghEgp-OwD1J704yQH-gl-22" value="" style="points=[[0.145,0.145,0],[0.5,0,0],[0.855,0.145,0],[1,0.5,0],[0.855,0.855,0],[0.5,1,0],[0.145,0.855,0],[0,0.5,0]];shape=mxgraph.bpmn.event;html=1;verticalLabelPosition=bottom;labelBackgroundColor=#ffffff;verticalAlign=top;align=center;perimeter=ellipsePerimeter;outlineConnect=0;aspect=fixed;outline=standard;symbol=message;" vertex="1" parent="ghEgp-OwD1J704yQH-gl-3">
          <mxGeometry x="45.44578313253012" y="30" width="49.39759036144578" height="49.39759036144578" as="geometry" />
        </mxCell>
        <mxCell id="ghEgp-OwD1J704yQH-gl-23" value="" style="points=[[0.25,0.25,0],[0.5,0,0],[0.75,0.25,0],[1,0.5,0],[0.75,0.75,0],[0.5,1,0],[0.25,0.75,0],[0,0.5,0]];shape=mxgraph.bpmn.gateway2;html=1;verticalLabelPosition=bottom;labelBackgroundColor=#ffffff;verticalAlign=top;align=center;perimeter=rhombusPerimeter;outlineConnect=0;outline=none;symbol=none;gwType=parallel;" vertex="1" parent="ghEgp-OwD1J704yQH-gl-3">
          <mxGeometry x="256.86746987951807" y="35" width="49.39759036144578" height="50" as="geometry" />
        </mxCell>
        <mxCell id="ghEgp-OwD1J704yQH-gl-28" value="" style="points=[[0.145,0.145,0],[0.5,0,0],[0.855,0.145,0],[1,0.5,0],[0.855,0.855,0],[0.5,1,0],[0.145,0.855,0],[0,0.5,0]];shape=mxgraph.bpmn.event;html=1;verticalLabelPosition=bottom;labelBackgroundColor=#ffffff;verticalAlign=top;align=center;perimeter=ellipsePerimeter;outlineConnect=0;aspect=fixed;outline=throwing;symbol=message;" vertex="1" parent="ghEgp-OwD1J704yQH-gl-3">
          <mxGeometry x="326.0240963855422" y="35" width="49.39759036144578" height="49.39759036144578" as="geometry" />
        </mxCell>
        <mxCell id="ghEgp-OwD1J704yQH-gl-29" style="edgeStyle=orthogonalEdgeStyle;rounded=0;orthogonalLoop=1;jettySize=auto;html=1;entryX=0;entryY=0.5;entryDx=0;entryDy=0;entryPerimeter=0;" edge="1" parent="ghEgp-OwD1J704yQH-gl-3" source="ghEgp-OwD1J704yQH-gl-23" target="ghEgp-OwD1J704yQH-gl-28">
          <mxGeometry relative="1" as="geometry" />
        </mxCell>
        <mxCell id="ghEgp-OwD1J704yQH-gl-34" style="edgeStyle=orthogonalEdgeStyle;rounded=0;orthogonalLoop=1;jettySize=auto;html=1;dashed=1;" edge="1" parent="ghEgp-OwD1J704yQH-gl-3" source="ghEgp-OwD1J704yQH-gl-30">
          <mxGeometry relative="1" as="geometry">
            <mxPoint x="469.2771084337349" y="-130" as="targetPoint" />
          </mxGeometry>
        </mxCell>
        <mxCell id="ghEgp-OwD1J704yQH-gl-30" value="Calmer le client" style="points=[[0.25,0,0],[0.5,0,0],[0.75,0,0],[1,0.25,0],[1,0.5,0],[1,0.75,0],[0.75,1,0],[0.5,1,0],[0.25,1,0],[0,0.75,0],[0,0.5,0],[0,0.25,0]];shape=mxgraph.bpmn.task;whiteSpace=wrap;rectStyle=rounded;size=10;html=1;container=1;expand=0;collapsible=0;taskMarker=abstract;" vertex="1" parent="ghEgp-OwD1J704yQH-gl-3">
          <mxGeometry x="405.0602409638554" y="30" width="128.43373493975903" height="60" as="geometry" />
        </mxCell>
        <mxCell id="ghEgp-OwD1J704yQH-gl-32" style="edgeStyle=orthogonalEdgeStyle;rounded=0;orthogonalLoop=1;jettySize=auto;html=1;entryX=0;entryY=0.5;entryDx=0;entryDy=0;entryPerimeter=0;" edge="1" parent="ghEgp-OwD1J704yQH-gl-3" source="ghEgp-OwD1J704yQH-gl-28" target="ghEgp-OwD1J704yQH-gl-30">
          <mxGeometry relative="1" as="geometry" />
        </mxCell>
        <mxCell id="ghEgp-OwD1J704yQH-gl-33" style="edgeStyle=orthogonalEdgeStyle;rounded=0;orthogonalLoop=1;jettySize=auto;html=1;exitX=1;exitY=0.5;exitDx=0;exitDy=0;exitPerimeter=0;entryX=0;entryY=0.5;entryDx=0;entryDy=0;entryPerimeter=0;" edge="1" parent="ghEgp-OwD1J704yQH-gl-3" source="ghEgp-OwD1J704yQH-gl-30" target="ghEgp-OwD1J704yQH-gl-28">
          <mxGeometry relative="1" as="geometry">
            <Array as="points">
              <mxPoint x="553.2530120481928" y="60" />
              <mxPoint x="553.2530120481928" y="110" />
              <mxPoint x="306.26506024096386" y="110" />
              <mxPoint x="306.26506024096386" y="60" />
            </Array>
          </mxGeometry>
        </mxCell>
        <mxCell id="ghEgp-OwD1J704yQH-gl-37" style="edgeStyle=orthogonalEdgeStyle;rounded=0;orthogonalLoop=1;jettySize=auto;html=1;dashed=1;" edge="1" parent="ghEgp-OwD1J704yQH-gl-3" source="ghEgp-OwD1J704yQH-gl-36">
          <mxGeometry relative="1" as="geometry">
            <mxPoint x="632.289156626506" y="-130" as="targetPoint" />
          </mxGeometry>
        </mxCell>
        <mxCell id="ghEgp-OwD1J704yQH-gl-36" value="Annuler commande" style="points=[[0.25,0,0],[0.5,0,0],[0.75,0,0],[1,0.25,0],[1,0.5,0],[1,0.75,0],[0.75,1,0],[0.5,1,0],[0.25,1,0],[0,0.75,0],[0,0.5,0],[0,0.25,0]];shape=mxgraph.bpmn.task;whiteSpace=wrap;rectStyle=rounded;size=10;html=1;container=1;expand=0;collapsible=0;taskMarker=abstract;" vertex="1" parent="ghEgp-OwD1J704yQH-gl-3">
          <mxGeometry x="573.0120481927711" y="30" width="118.55421686746988" height="60" as="geometry" />
        </mxCell>
        <mxCell id="ghEgp-OwD1J704yQH-gl-39" value="" style="points=[[0.145,0.145,0],[0.5,0,0],[0.855,0.145,0],[1,0.5,0],[0.855,0.855,0],[0.5,1,0],[0.145,0.855,0],[0,0.5,0]];shape=mxgraph.bpmn.event;html=1;verticalLabelPosition=bottom;labelBackgroundColor=#ffffff;verticalAlign=top;align=center;perimeter=ellipsePerimeter;outlineConnect=0;aspect=fixed;outline=end;symbol=terminate2;" vertex="1" parent="ghEgp-OwD1J704yQH-gl-3">
          <mxGeometry x="731.0843373493975" y="35" width="49.39759036144578" height="49.39759036144578" as="geometry" />
        </mxCell>
        <mxCell id="ghEgp-OwD1J704yQH-gl-40" style="edgeStyle=orthogonalEdgeStyle;rounded=0;orthogonalLoop=1;jettySize=auto;html=1;entryX=0;entryY=0.5;entryDx=0;entryDy=0;entryPerimeter=0;" edge="1" parent="ghEgp-OwD1J704yQH-gl-3" source="ghEgp-OwD1J704yQH-gl-36" target="ghEgp-OwD1J704yQH-gl-39">
          <mxGeometry relative="1" as="geometry" />
        </mxCell>
        <mxCell id="ghEgp-OwD1J704yQH-gl-41" value="&lt;div&gt;Comande&lt;/div&gt;&lt;div&gt;&amp;nbsp;annulée&lt;/div&gt;" style="text;html=1;align=center;verticalAlign=middle;resizable=0;points=[];autosize=1;strokeColor=none;fillColor=none;" vertex="1" parent="ghEgp-OwD1J704yQH-gl-3">
          <mxGeometry x="716.2650602409639" y="80" width="80" height="40" as="geometry" />
        </mxCell>
        <mxCell id="ghEgp-OwD1J704yQH-gl-4" value="CHef pizza" style="swimlane;html=1;startSize=20;horizontal=0;" vertex="1" parent="ghEgp-OwD1J704yQH-gl-2">
          <mxGeometry x="20" y="120" width="800" height="120" as="geometry" />
        </mxCell>
        <mxCell id="ghEgp-OwD1J704yQH-gl-50" value="Faire pizza" style="points=[[0.25,0,0],[0.5,0,0],[0.75,0,0],[1,0.25,0],[1,0.5,0],[1,0.75,0],[0.75,1,0],[0.5,1,0],[0.25,1,0],[0,0.75,0],[0,0.5,0],[0,0.25,0]];shape=mxgraph.bpmn.task;whiteSpace=wrap;rectStyle=rounded;size=10;html=1;container=1;expand=0;collapsible=0;taskMarker=abstract;" vertex="1" parent="ghEgp-OwD1J704yQH-gl-4">
          <mxGeometry x="455.4457831325301" y="35" width="88.9156626506024" height="50" as="geometry" />
        </mxCell>
        <mxCell id="ghEgp-OwD1J704yQH-gl-43" style="edgeStyle=orthogonalEdgeStyle;rounded=0;orthogonalLoop=1;jettySize=auto;html=1;exitX=1;exitY=0.5;exitDx=0;exitDy=0;entryX=0;entryY=0.25;entryDx=0;entryDy=0;entryPerimeter=0;" edge="1" parent="ghEgp-OwD1J704yQH-gl-2" source="ghEgp-OwD1J704yQH-gl-18" target="ghEgp-OwD1J704yQH-gl-42">
          <mxGeometry relative="1" as="geometry">
            <mxPoint x="296.3855421686747" y="281" as="targetPoint" />
            <Array as="points">
              <mxPoint x="256.86746987951807" y="60" />
              <mxPoint x="256.86746987951807" y="290" />
            </Array>
          </mxGeometry>
        </mxCell>
        <mxCell id="ghEgp-OwD1J704yQH-gl-5" value="Livreur" style="swimlane;html=1;startSize=20;horizontal=0;" vertex="1" parent="ghEgp-OwD1J704yQH-gl-2">
          <mxGeometry x="20" y="240" width="800" height="120" as="geometry" />
        </mxCell>
        <mxCell id="ghEgp-OwD1J704yQH-gl-45" style="edgeStyle=orthogonalEdgeStyle;rounded=0;orthogonalLoop=1;jettySize=auto;html=1;" edge="1" parent="ghEgp-OwD1J704yQH-gl-5" source="ghEgp-OwD1J704yQH-gl-42" target="ghEgp-OwD1J704yQH-gl-44">
          <mxGeometry relative="1" as="geometry" />
        </mxCell>
        <mxCell id="ghEgp-OwD1J704yQH-gl-42" value="&lt;div&gt;vérifier disponibilités livreur&lt;br&gt;&lt;/div&gt;" style="points=[[0.25,0,0],[0.5,0,0],[0.75,0,0],[1,0.25,0],[1,0.5,0],[1,0.75,0],[0.75,1,0],[0.5,1,0],[0.25,1,0],[0,0.75,0],[0,0.5,0],[0,0.25,0]];shape=mxgraph.bpmn.task;whiteSpace=wrap;rectStyle=rounded;size=10;html=1;container=1;expand=0;collapsible=0;taskMarker=abstract;" vertex="1" parent="ghEgp-OwD1J704yQH-gl-5">
          <mxGeometry x="246.9879518072289" y="24.58" width="118.55421686746988" height="40" as="geometry" />
        </mxCell>
        <mxCell id="ghEgp-OwD1J704yQH-gl-44" value="" style="points=[[0.25,0.25,0],[0.5,0,0],[0.75,0.25,0],[1,0.5,0],[0.75,0.75,0],[0.5,1,0],[0.25,0.75,0],[0,0.5,0]];shape=mxgraph.bpmn.gateway2;html=1;verticalLabelPosition=bottom;labelBackgroundColor=#ffffff;verticalAlign=top;align=center;perimeter=rhombusPerimeter;outlineConnect=0;outline=none;symbol=none;gwType=exclusive;" vertex="1" parent="ghEgp-OwD1J704yQH-gl-5">
          <mxGeometry x="395.18072289156623" y="19.58" width="49.39759036144578" height="50" as="geometry" />
        </mxCell>
        <mxCell id="ghEgp-OwD1J704yQH-gl-49" value="oui" style="text;html=1;align=center;verticalAlign=middle;resizable=0;points=[];autosize=1;strokeColor=none;fillColor=none;" vertex="1" parent="ghEgp-OwD1J704yQH-gl-5">
          <mxGeometry x="415.92771084337346" width="40" height="30" as="geometry" />
        </mxCell>
        <mxCell id="ghEgp-OwD1J704yQH-gl-46" value="non" style="text;html=1;align=center;verticalAlign=middle;resizable=0;points=[];autosize=1;strokeColor=none;fillColor=none;" vertex="1" parent="ghEgp-OwD1J704yQH-gl-5">
          <mxGeometry x="434.69879518072287" y="34.58" width="40" height="30" as="geometry" />
        </mxCell>
        <mxCell id="ghEgp-OwD1J704yQH-gl-59" value="Livrer pizza" style="points=[[0.25,0,0],[0.5,0,0],[0.75,0,0],[1,0.25,0],[1,0.5,0],[1,0.75,0],[0.75,1,0],[0.5,1,0],[0.25,1,0],[0,0.75,0],[0,0.5,0],[0,0.25,0]];shape=mxgraph.bpmn.task;whiteSpace=wrap;rectStyle=rounded;size=10;html=1;container=1;expand=0;collapsible=0;taskMarker=abstract;" vertex="1" parent="ghEgp-OwD1J704yQH-gl-5">
          <mxGeometry x="523.6144578313252" y="60" width="79.03614457831326" height="50" as="geometry" />
        </mxCell>
        <mxCell id="ghEgp-OwD1J704yQH-gl-60" value="Recevoir payement" style="points=[[0.25,0,0],[0.5,0,0],[0.75,0,0],[1,0.25,0],[1,0.5,0],[1,0.75,0],[0.75,1,0],[0.5,1,0],[0.25,1,0],[0,0.75,0],[0,0.5,0],[0,0.25,0]];shape=mxgraph.bpmn.task;whiteSpace=wrap;rectStyle=rounded;size=10;html=1;container=1;expand=0;collapsible=0;taskMarker=abstract;" vertex="1" parent="ghEgp-OwD1J704yQH-gl-5">
          <mxGeometry x="622.4096385542168" y="60" width="88.9156626506024" height="50" as="geometry" />
        </mxCell>
        <mxCell id="ghEgp-OwD1J704yQH-gl-61" value="" style="points=[[0.145,0.145,0],[0.5,0,0],[0.855,0.145,0],[1,0.5,0],[0.855,0.855,0],[0.5,1,0],[0.145,0.855,0],[0,0.5,0]];shape=mxgraph.bpmn.event;html=1;verticalLabelPosition=bottom;labelBackgroundColor=#ffffff;verticalAlign=top;align=center;perimeter=ellipsePerimeter;outlineConnect=0;aspect=fixed;outline=end;symbol=terminate;" vertex="1" parent="ghEgp-OwD1J704yQH-gl-5">
          <mxGeometry x="740.9638554216867" y="60" width="49.39759036144578" height="49.39759036144578" as="geometry" />
        </mxCell>
        <mxCell id="ghEgp-OwD1J704yQH-gl-63" style="edgeStyle=orthogonalEdgeStyle;rounded=0;orthogonalLoop=1;jettySize=auto;html=1;exitX=1;exitY=0.5;exitDx=0;exitDy=0;exitPerimeter=0;entryX=0;entryY=0.5;entryDx=0;entryDy=0;entryPerimeter=0;" edge="1" parent="ghEgp-OwD1J704yQH-gl-5">
          <mxGeometry relative="1" as="geometry">
            <mxPoint x="602.6506024096385" y="69.58" as="sourcePoint" />
            <mxPoint x="622.4096385542168" y="69.58" as="targetPoint" />
          </mxGeometry>
        </mxCell>
        <mxCell id="ghEgp-OwD1J704yQH-gl-64" style="edgeStyle=orthogonalEdgeStyle;rounded=0;orthogonalLoop=1;jettySize=auto;html=1;entryX=0;entryY=0.5;entryDx=0;entryDy=0;entryPerimeter=0;" edge="1" parent="ghEgp-OwD1J704yQH-gl-5" source="ghEgp-OwD1J704yQH-gl-60" target="ghEgp-OwD1J704yQH-gl-61">
          <mxGeometry relative="1" as="geometry" />
        </mxCell>
        <mxCell id="ghEgp-OwD1J704yQH-gl-65" value="pizza envoyé" style="text;html=1;align=center;verticalAlign=middle;resizable=0;points=[];autosize=1;strokeColor=none;fillColor=none;" vertex="1" parent="ghEgp-OwD1J704yQH-gl-5">
          <mxGeometry x="708.3614457831325" y="19.579999999999984" width="90" height="30" as="geometry" />
        </mxCell>
        <mxCell id="ghEgp-OwD1J704yQH-gl-47" style="edgeStyle=orthogonalEdgeStyle;rounded=0;orthogonalLoop=1;jettySize=auto;html=1;entryX=0;entryY=0.5;entryDx=0;entryDy=0;entryPerimeter=0;" edge="1" parent="ghEgp-OwD1J704yQH-gl-2" source="ghEgp-OwD1J704yQH-gl-44" target="ghEgp-OwD1J704yQH-gl-36">
          <mxGeometry relative="1" as="geometry">
            <Array as="points">
              <mxPoint x="582.8915662650602" y="285" />
              <mxPoint x="582.8915662650602" y="60" />
            </Array>
          </mxGeometry>
        </mxCell>
        <mxCell id="ghEgp-OwD1J704yQH-gl-48" style="edgeStyle=orthogonalEdgeStyle;rounded=0;orthogonalLoop=1;jettySize=auto;html=1;exitX=0.5;exitY=0;exitDx=0;exitDy=0;exitPerimeter=0;entryX=0;entryY=0.5;entryDx=0;entryDy=0;entryPerimeter=0;" edge="1" parent="ghEgp-OwD1J704yQH-gl-2" source="ghEgp-OwD1J704yQH-gl-44" target="ghEgp-OwD1J704yQH-gl-23">
          <mxGeometry relative="1" as="geometry">
            <Array as="points">
              <mxPoint x="439.6385542168675" y="220" />
              <mxPoint x="266.7469879518072" y="220" />
              <mxPoint x="266.7469879518072" y="60" />
            </Array>
          </mxGeometry>
        </mxCell>
        <mxCell id="ghEgp-OwD1J704yQH-gl-51" style="edgeStyle=orthogonalEdgeStyle;rounded=0;orthogonalLoop=1;jettySize=auto;html=1;exitX=0.5;exitY=1;exitDx=0;exitDy=0;exitPerimeter=0;entryX=0;entryY=0.5;entryDx=0;entryDy=0;entryPerimeter=0;" edge="1" parent="ghEgp-OwD1J704yQH-gl-2" source="ghEgp-OwD1J704yQH-gl-23" target="ghEgp-OwD1J704yQH-gl-50">
          <mxGeometry relative="1" as="geometry" />
        </mxCell>
        <mxCell id="ghEgp-OwD1J704yQH-gl-62" style="edgeStyle=orthogonalEdgeStyle;rounded=0;orthogonalLoop=1;jettySize=auto;html=1;exitX=0.5;exitY=1;exitDx=0;exitDy=0;exitPerimeter=0;entryX=0;entryY=0.75;entryDx=0;entryDy=0;entryPerimeter=0;" edge="1" parent="ghEgp-OwD1J704yQH-gl-2" source="ghEgp-OwD1J704yQH-gl-50" target="ghEgp-OwD1J704yQH-gl-59">
          <mxGeometry relative="1" as="geometry" />
        </mxCell>
        <mxCell id="ghEgp-OwD1J704yQH-gl-21" value="Commande" style="text;html=1;align=center;verticalAlign=middle;resizable=0;points=[];autosize=1;strokeColor=none;fillColor=none;" vertex="1" parent="ghEgp-OwD1J704yQH-gl-66">
          <mxGeometry x="65.20481927710843" y="128" width="90" height="30" as="geometry" />
        </mxCell>
        <mxCell id="ghEgp-OwD1J704yQH-gl-26" style="edgeStyle=orthogonalEdgeStyle;rounded=0;orthogonalLoop=1;jettySize=auto;html=1;entryX=0.5;entryY=0;entryDx=0;entryDy=0;entryPerimeter=0;dashed=1;" edge="1" parent="ghEgp-OwD1J704yQH-gl-66" target="ghEgp-OwD1J704yQH-gl-28">
          <mxGeometry relative="1" as="geometry">
            <mxPoint x="370.48192771084337" y="100" as="sourcePoint" />
            <mxPoint x="370.48192771084337" y="265" as="targetPoint" />
          </mxGeometry>
        </mxCell>
        <mxCell id="ghEgp-OwD1J704yQH-gl-27" value="Plainte" style="text;html=1;align=center;verticalAlign=middle;resizable=0;points=[];autosize=1;strokeColor=none;fillColor=none;" vertex="1" parent="ghEgp-OwD1J704yQH-gl-66">
          <mxGeometry x="365.54216867469876" y="128" width="60" height="30" as="geometry" />
        </mxCell>
        <mxCell id="ghEgp-OwD1J704yQH-gl-35" value="Excuses" style="text;html=1;align=center;verticalAlign=middle;resizable=0;points=[];autosize=1;strokeColor=none;fillColor=none;" vertex="1" parent="ghEgp-OwD1J704yQH-gl-66">
          <mxGeometry x="480.144578313253" y="128" width="70" height="30" as="geometry" />
        </mxCell>
        <mxCell id="ghEgp-OwD1J704yQH-gl-38" value="Excuses" style="text;html=1;align=center;verticalAlign=middle;resizable=0;points=[];autosize=1;strokeColor=none;fillColor=none;" vertex="1" parent="ghEgp-OwD1J704yQH-gl-66">
          <mxGeometry x="652.0481927710844" y="128" width="70" height="30" as="geometry" />
        </mxCell>
      </root>
    </mxGraphModel>
  </diagram>
</mxfile>
